<svg xmlns="http://www.w3.org/2000/svg" version="1.1" xmlns:xlink="http://www.w3.org/1999/xlink" xmlns:svgjs="http://svgjs.dev/svgjs" width="1000" height="1000" viewBox="0 0 1000 1000"><rect width="1000" height="1000" fill="#ffffff"></rect><g transform="matrix(0.7,0,0,0.7,150,106.25)"><svg viewBox="0 0 320 360" data-background-color="#ffffff" preserveAspectRatio="xMidYMid meet" height="1125" width="1000" xmlns="http://www.w3.org/2000/svg" xmlns:xlink="http://www.w3.org/1999/xlink"><g id="tight-bounds" transform="matrix(1,0,0,1,0,0)"><svg viewBox="0 0 320 360" height="360" width="320"><g><svg></svg></g><g><svg viewBox="0 0 320 360" height="360" width="320"><g><path xmlns="http://www.w3.org/2000/svg" d="M219.58 41.008c0.707 0 6.365 2.829 9.547 3.89-1.061 0.354-3.536-0.707-6.365-1.768 0.707 0 2.122 0.354 3.536 1.06-0.707-0.707-6.011-2.475-6.718-3.182M166.895 30.047c1.061-0.354 13.436 1.414 19.094 1.768 0.354-0.354-0.707-0.354-2.122-0.707 1.768-0.354 5.304 0.707 7.779 1.06-7.425 0.354-15.558-1.768-22.629-1.06-2.475 0-0.707-0.707-2.122-1.061M156.641 30.047c6.365 0 11.315 0 2.121 0.707-1.061-0.354-2.475-0.354-2.121-0.707M256.707 59.395c0.707 0 3.536 3.182 4.95 4.243-0.354 0.354-3.182-2.475-4.596-3.536 0.354 0.354 0 0-0.354-0.707M249.635 54.798c-2.829-2.475-3.889-2.475-4.243-3.889 2.475 1.414 4.243 2.829 4.243 3.889M204.022 32.522c0.354-0.354 1.061 0.354 2.829 0.707-2.122-0.354-1.768 0-1.061 0.707-2.475-0.354-3.182-0.707-2.475-1.414 1.414 0.707 1.768 0.354 0.707 0M103.602 36.765c0-0.354 1.414-1.061 2.475-1.414-1.061 0.707-0.707 1.061 1.061 0.353 0 0.354-2.122 1.061-3.536 1.768 0.707-0.354 1.414-1.414 0-0.707M211.094 28.986c-1.061 0.354-4.95-1.768-8.84-2.475-2.122-0.707 8.486 1.768 8.84 2.475M2.475 203.66c2.122 8.84 0.707 8.486 0 0M2.829 150.621c0.354-1.414 0.707-5.304 1.06-4.95-1.061 8.486-2.829 12.376-3.182 18.74 1.061-5.657-0.354 3.182-0.707 5.304 0.354 2.829 0.354-1.768 1.061-1.06 0.707 1.061-1.414 15.912-0.707 7.779-0.707 7.425 0 15.558 1.414 17.679-1.768 11.315 7.072 36.773 8.84 42.077 0.354 0.354 0-1.768 0.707-0.353 0.707 4.597 3.889 7.779 4.95 12.729 1.061 1.414 5.304 9.193 6.011 10.962 1.414 2.829 2.122 2.475 3.536 5.303 4.243 8.133 10.961 15.912 17.326 23.337 20.508 24.044 51.978 43.845 86.984 50.918 35.006 7.425 71.779 2.122 100.419-11.669 1.768-1.061 1.414-1.414 3.536-2.122 9.901-3.182 21.923-13.436 28.641-17.326 3.182-3.536 11.669-9.547 12.73-13.082 6.011-4.95 12.022-13.083 15.204-18.387 1.768-2.829 3.182-2.829 3.889-4.597-0.354 0 5.657-7.425 7.426-11.668-0.707 0-1.768 2.122-1.768 0 12.729-24.398 19.801-57.282 15.911-79.912 0.707 27.934-6.365 59.05-19.801 78.851-6.011 12.729-18.387 26.519-29.701 36.42-1.768 1.768-3.536 3.889-5.658 5.304-6.718 5.657-14.144 10.254-21.922 14.497-18.387 10.254-38.895 19.094-62.94 19.447 41.37-3.536 78.497-24.398 99.006-49.856-15.558 15.204-22.276 21.215-39.602 30.055-1.414 2.475-13.083 7.425-20.862 9.547 4.597-2.122 14.144-5.657 17.326-8.486-25.812 12.376-54.453 19.448-81.326 15.558 10.254 0 24.751 0.354 38.541-2.121 2.122-0.707 3.182-1.414 5.658-1.768 26.873-6.011 52.685-19.094 71.072-37.481-10.608 9.547-26.519 20.862-36.774 24.398 9.547-5.304 26.873-15.558 32.53-23.337-11.315 11.315-32.53 22.63-45.966 27.58-2.122 0.354 1.414-1.414-2.122 0-4.243 1.061-2.475 1.061-3.536 1.768-16.265 4.597-35.006 8.486-50.563 7.072-2.829-0.354-3.889-1.061-6.365-1.061-2.829-0.354-5.304-0.354-8.486-0.354-12.376-1.414-25.812-6.365-35.713-10.607-5.304-2.475-10.608-4.243-15.912-7.426-4.243-2.475-7.779-5.304-11.314-8.132-13.436-9.901-24.751-19.801-35.36-33.945-19.094-26.519-28.994-59.757-27.58-92.641 1.414-32.884 14.497-65.061 35.359-88.752-1.061 1.061 1.414-2.475 3.536-4.596 0 0.707-0.354 1.768 2.122-0.707 2.122-2.475-0.707-0.707 0.353-2.122 21.923-24.044 60.111-43.492 99.36-44.199 1.414-1.061 3.889-2.475 6.718-1.768 0 0.354-1.768 0.354-1.768 0.354 3.889-0.354 7.425-0.354 9.193 0.353 0.354-0.354-1.414-0.707 0-0.707 2.475 0.707 3.182 0 4.597 0.707-1.061 0-2.122 0-2.829 0.354 8.84 0 14.497 2.122 23.337 2.829-4.597-1.061-5.657-1.061-9.193-2.122 3.889 0.707 5.657 1.414 7.425 1.061-0.707 0-0.354-1.061 0.354-0.707 7.072 1.768 7.779 2.475 15.204 4.95 0.707-0.707-3.182-1.061-4.243-2.122 7.072 2.475 13.436 4.243 17.68 7.072-1.414-1.061-5.657-2.475-8.84-3.889-0.354 0.354 1.061 0.707 1.414 1.414-3.536-1.768-8.486-3.536-13.436-4.243 4.243 1.061 7.072 2.475 8.84 3.182-3.889-0.707-8.84-3.182-14.498-4.243 9.193 2.829 26.519 9.193 37.127 14.851-3.889-2.475-8.486-4.243-10.961-5.657 2.122 0.354 4.597 1.768 4.597 1.06 2.475 1.061 5.657 3.536 7.425 3.89-3.182-2.122-9.547-5.304-11.668-6.365 26.519 12.022 50.21 32.177 65.414 57.989 1.414 2.475 3.536 8.133 5.304 8.84-0.354-1.768-1.768-2.829-3.182-5.657 0.707 0 0.707-1.061 0-2.122-1.414-1.768 0 1.414-1.415-0.354-6.365-11.669-14.144-21.923-26.165-33.237 6.718 6.365 1.768 1.768 0.353-0.354 9.193 8.133 19.801 21.923 24.398 28.995-0.707-1.061-1.061-1.768-0.707-1.768 8.486 14.497 13.79 27.58 19.094 46.32 0.354 0.354 0-1.414 0.707-0.353 3.536 14.851 4.597 27.227 4.243 38.541 2.829-19.094-3.536-48.796-14.851-72.133-1.414-2.829-1.414-0.707-2.829-3.889 0-1.061-1.061-3.182-1.768-4.597-14.144-23.337-31.47-39.956-51.978-53.038 1.414 0.707 4.243 2.829 4.244 2.475-38.188-25.105-82.387-28.641-118.807-20.862-2.475 1.061-3.536 2.122-6.365 3.536 5.304-1.768 8.486-2.122 13.437-3.183 1.061-1.061-4.597 0.354-2.122-0.707 0.354 0.354 4.95-0.707 6.011-0.353 0 0.354-1.414 0.707-1.768 1.06 11.669-2.475 23.691-2.829 33.945-2.121-6.011 0.354-16.972-0.707-20.508 1.061 3.536-0.354 8.486-0.707 11.668-0.354-4.243 0-12.022 0.354-15.558 0.707-0.354-0.354 5.657-1.061 1.768-1.06-1.768 0.354-4.597 0.354-5.657 1.414-30.409 2.829-60.111 18.74-80.973 37.481-4.243 3.536-9.193 7.425-12.375 11.314-7.779 8.84-12.729 17.68-18.387 25.459 3.536-7.425 11.315-18.74 20.508-28.287 9.193-9.547 19.094-17.68 24.398-21.923 0 1.414 8.486-5.304 11.669-7.425-2.122 1.768 1.414-0.707 2.121-0.354 11.315-6.718 20.508-9.193 30.763-13.083-2.475 0.707-4.597 1.414-4.951 1.061 2.475-0.707 3.889-1.414 3.536-1.768-9.901 2.829-25.459 9.547-37.834 16.972 22.276-15.204 50.564-24.398 78.497-24.751 27.934-0.707 55.16 6.365 76.729 17.68 14.497 6.365 28.287 18.033 39.249 29.348 3.182 2.829 0.707-0.707 5.304 4.243-1.414-0.707-2.475-1.414-0.707 0.707 2.829 3.182-0.707-2.475 3.889 3.182-0.354 0-1.768-1.768-1.768-1.061 12.376 10.961 21.923 30.762 27.58 43.846-1.414-5.304-4.95-12.729-7.779-18.033 8.486 15.558 11.315 24.751 14.851 38.541 1.414 1.061-0.707-4.95 0.707-2.121 0.354 2.122 0.707 8.84 2.122 9.9-1.061-6.718-2.829-14.851-4.243-16.265 1.061 0.707-1.768-8.133-3.536-10.254-0.707-5.657-5.657-15.558-9.901-22.984-15.204-29.702-42.431-54.099-72.839-67.536 0-0.707-1.768-1.414-2.476-2.121-30.055-12.729-66.122-16.265-100.773-8.133-35.006 8.486-67.889 28.641-91.227 57.636 1.061-3.536 9.901-10.254 10.255-13.083-10.254 10.961-21.215 25.459-28.641 41.016-7.779 15.558-12.022 31.47-13.79 43.138" fill="#77d4fc" fill-rule="nonzero" stroke="none" stroke-width="1" stroke-linecap="butt" stroke-linejoin="miter" stroke-miterlimit="10" stroke-dasharray="" stroke-dashoffset="0" font-family="none" font-weight="none" font-size="none" text-anchor="none" style="mix-blend-mode: normal" data-fill-palette-color="tertiary"></path></g><g transform="matrix(1,0,0,1,48,118.91560828574117)"><svg viewBox="0 0 224 122.16878342851767" height="122.16878342851767" width="224"><g><svg viewBox="0 0 224 122.16878342851767" height="122.16878342851767" width="224"><g><svg viewBox="0 0 224 122.16878342851767" height="122.16878342851767" width="224"><g transform="matrix(1,0,0,1,0,73.48292893440002)"><svg viewBox="0 0 224 48.68585449411765" height="48.68585449411765" width="224"><g id="textblocktransform"><svg viewBox="0 0 224 48.68585449411765" height="48.68585449411765" width="224" id="textblock"><g><svg viewBox="0 0 224 26.258823529411767" height="26.258823529411767" width="224"><g transform="matrix(1,0,0,1,0,0)"><svg width="224" viewBox="4.25 -31.610000610351562 273.5400085449219 32.06999969482422" height="26.258823529411767" data-palette-color="#24a6dc"><path d="M24.66-17.93L24.66-29.48Q24.66-30.8 25.98-31.21L25.98-31.21Q26.32-31.26 26.84-31.32 27.36-31.38 27.99-30.92 28.62-30.46 28.62-29.48L28.62-29.48 28.62-1.9Q28.62-1.03 28.1-0.57L28.1-0.57Q27.41 0 26.64 0 25.86 0 25.26-0.46 24.66-0.92 24.66-1.9L24.66-1.9 24.66-14.66 8.16-14.66 8.16-1.9Q8.16-1.03 7.7-0.57L7.7-0.57Q7.01 0 6.21 0 5.4 0 4.83-0.46 4.25-0.92 4.25-1.9L4.25-1.9 4.25-29.48Q4.25-30.8 5.52-31.21L5.52-31.21Q5.86-31.26 6.38-31.32 6.9-31.38 7.53-30.92 8.16-30.46 8.16-29.48L8.16-29.48 8.16-17.93 24.66-17.93ZM55.97 0L39.08 0Q38.39 0 37.93-0.46L37.93-0.46Q37.12-1.15 37.12-1.9L37.12-1.9 37.12-29.43Q37.12-30.52 38.27-31.15L38.27-31.15Q38.62-31.26 38.96-31.38L38.96-31.38 55.34-31.38Q56.2-31.38 56.61-30.86 57.01-30.34 57.01-29.74 57.01-29.14 56.55-28.62 56.09-28.1 55.34-28.1L55.34-28.1 40.92-28.1 40.92-17.7 54.65-17.7Q55.51-17.7 55.92-17.21 56.32-16.72 56.32-16.09L56.32-16.09Q56.32-15.52 55.86-15.06 55.4-14.6 54.65-14.6L54.65-14.6 40.92-14.6 40.92-3.22 55.97-3.22Q56.78-3.22 57.18-2.7 57.58-2.18 57.58-1.55 57.58-0.92 57.15-0.46 56.72 0 55.97 0L55.97 0ZM79.08-27.93L89.65-2.41Q89.71-2.07 89.71-1.72 89.71-1.38 89.54-1.03 89.36-0.69 89.08-0.52L89.08-0.52Q88.5 0 87.81 0L87.81 0Q86.43 0 85.97-1.21L85.97-1.21 83.16-8.16 67.64-8.16 64.88-1.21Q64.48 0 63.27 0 62.06 0 61.43-1.03L61.43-1.03Q61.26-1.38 61.26-1.67 61.26-1.95 61.43-2.41L61.43-2.41 71.83-27.93Q72.98-30.8 74.48-31.21L74.48-31.21Q74.88-31.26 75.51-31.38L75.51-31.38Q76.66-31.38 77.24-30.86L77.24-30.86Q78.16-30.17 79.08-27.93L79.08-27.93ZM75.4-28.1L68.73-11.21 82.12-11.21 75.4-28.1ZM95.45-30.11L105.05-3.33 105.05-3.33 114.42-30Q115.05-31.38 116.26-31.38L116.26-31.38Q116.95-31.38 117.41-31.03L117.41-31.03Q118.1-30.46 118.1-29.66L118.1-29.66 118.1-29.43Q118.1-29.31 117.98-29.08L117.98-29.08 108.15-2.3Q107.46 0 104.88 0L104.88 0Q102.58 0 101.77-2.3L101.77-2.3 91.77-28.97Q91.66-29.31 91.66-29.6 91.66-29.89 91.83-30.23 92-30.57 92.29-30.86L92.29-30.86Q92.92-31.38 93.61-31.38L93.61-31.38Q95.05-31.38 95.45-30.11L95.45-30.11ZM142.23 0L125.33 0Q124.65 0 124.19-0.46L124.19-0.46Q123.38-1.15 123.38-1.9L123.38-1.9 123.38-29.43Q123.38-30.52 124.53-31.15L124.53-31.15Q124.88-31.26 125.22-31.38L125.22-31.38 141.6-31.38Q142.46-31.38 142.86-30.86 143.27-30.34 143.27-29.74 143.27-29.14 142.81-28.62 142.35-28.1 141.6-28.1L141.6-28.1 127.17-28.1 127.17-17.7 140.91-17.7Q141.77-17.7 142.17-17.21 142.58-16.72 142.58-16.09L142.58-16.09Q142.58-15.52 142.12-15.06 141.66-14.6 140.91-14.6L140.91-14.6 127.17-14.6 127.17-3.22 142.23-3.22Q143.04-3.22 143.44-2.7 143.84-2.18 143.84-1.55 143.84-0.92 143.41-0.46 142.98 0 142.23 0L142.23 0ZM150.45-1.72L150.45-28.79Q150.45-29.89 151.19-30.57L151.19-30.57Q151.88-31.26 152.69-31.38L152.69-31.38Q154.3-31.38 155.22-30.11L155.22-30.11 171.88-5 171.88-29.54Q171.88-30.46 172.23-30.8L172.23-30.8Q172.86-31.38 173.46-31.38 174.07-31.38 174.41-31.26 174.76-31.15 174.99-30.92L174.99-30.92Q175.62-30.46 175.56-29.54L175.56-29.54 175.56-2.59Q175.56-0.86 173.9-0.17L173.9-0.17Q173.49 0 172.86 0L172.86 0Q171.48 0 170.45-1.26L170.45-1.26 154.18-26.03 154.18-1.72Q154.18-0.92 153.72-0.57L153.72-0.57Q153.03 0 152.29 0 151.54 0 150.99-0.43 150.45-0.86 150.45-1.72L150.45-1.72ZM190.21-10L181.65-10Q180.96-10 180.53-10.46 180.1-10.92 180.1-11.58 180.1-12.24 180.56-12.67 181.02-13.1 181.65-13.1L181.65-13.1 190.21-13.1Q190.9-13.1 191.36-12.67 191.82-12.24 191.82-11.58 191.82-10.92 191.39-10.46 190.96-10 190.21-10L190.21-10ZM199.52-23.45L199.52-23.45Q199.52-22.24 200.33-21.18 201.13-20.11 202.4-19.43 203.66-18.74 205.27-18.22 206.88-17.7 208.66-17.13 210.44-16.55 212.17-15.86 213.89-15.17 215.15-14.14L215.15-14.14Q217.91-11.9 217.91-8.05L217.91-8.05Q217.91-6.21 217.05-4.57 216.19-2.93 214.64-1.84L214.64-1.84Q211.48 0.46 206.19 0.46L206.19 0.46Q201.19 0.46 197.4-2.07L197.4-2.07Q195.04-3.56 195.04-4.6L195.04-4.6Q195.04-5.52 195.96-6.09L195.96-6.09Q196.19-6.32 196.53-6.32 196.88-6.32 197.28-6.03 197.68-5.75 198.23-5.34 198.78-4.94 199.61-4.45 200.44-3.97 201.36-3.56L201.36-3.56Q203.66-2.64 205.84-2.7 208.03-2.76 209.35-3.05 210.67-3.33 211.71-4.02L211.71-4.02Q213.89-5.52 213.95-7.82L213.95-7.82Q213.95-10.69 211.13-12.24L211.13-12.24Q209.87-12.93 208.29-13.48 206.71-14.02 204.95-14.54 203.2-15.06 201.48-15.8 199.75-16.55 198.43-17.59L198.43-17.59Q195.61-19.83 195.61-23.33L195.61-23.33Q195.61-25.17 196.51-26.78 197.4-28.39 198.95-29.43L198.95-29.43Q201.94-31.55 206.42-31.61L206.42-31.61Q212.91-31.61 216.88-27.41L216.88-27.41Q217.11-27.07 217.11-26.64 217.11-26.21 217.08-25.92 217.05-25.63 216.76-25.34L216.76-25.34Q216.36-24.83 215.7-24.83 215.04-24.83 214.29-25.69L214.29-25.69Q212.4-27.07 211.25-27.47L211.25-27.47Q208.95-28.39 206.76-28.39L206.76-28.39Q203.95-28.39 201.94-27.24L201.94-27.24Q199.52-25.86 199.52-23.45ZM234.29-13.68L228.49-13.68 228.49-1.9Q228.49-0.52 227.22-0.11L227.22-0.11Q226.88 0 226.36 0 225.84 0 225.24-0.46 224.64-0.92 224.64-1.9L224.64-1.9 224.64-29.43Q224.64-30.57 225.84-31.21L225.84-31.21Q226.19-31.38 226.65-31.38L226.65-31.38 234.46-31.38Q244.23-31.38 246.36-25.4L246.36-25.4Q246.88-24.02 246.88-22.47 246.88-20.92 246.42-19.6 245.96-18.28 245.09-17.24 244.23-16.21 243.03-15.57 241.82-14.94 240.44-14.48L240.44-14.48Q237.74-13.68 234.29-13.68L234.29-13.68ZM228.49-16.78L234.98-16.78Q238.72-16.78 240.5-18.05L240.5-18.05Q242.85-19.54 242.85-22.59L242.85-22.59Q242.85-25.52 240.5-27.01L240.5-27.01Q238.72-28.16 235.04-28.28L235.04-28.28 228.49-28.28 228.49-16.78ZM267.16-27.93L277.74-2.41Q277.79-2.07 277.79-1.72 277.79-1.38 277.62-1.03 277.45-0.69 277.16-0.52L277.16-0.52Q276.59 0 275.9 0L275.9 0Q274.52 0 274.06-1.21L274.06-1.21 271.24-8.16 255.72-8.16 252.97-1.21Q252.56 0 251.36 0 250.15 0 249.52-1.03L249.52-1.03Q249.35-1.38 249.35-1.67 249.35-1.95 249.52-2.41L249.52-2.41 259.92-27.93Q261.07-30.8 262.56-31.21L262.56-31.21Q262.97-31.26 263.6-31.38L263.6-31.38Q264.75-31.38 265.32-30.86L265.32-30.86Q266.24-30.17 267.16-27.93L267.16-27.93ZM263.48-28.1L256.82-11.21 270.21-11.21 263.48-28.1Z" opacity="1" transform="matrix(1,0,0,1,0,0)" fill="#24a6dc" class="wordmark-text-0" data-fill-palette-color="primary" id="text-0"></path></svg></g></svg></g><g transform="matrix(1,0,0,1,81.65617442506651,32.45790155294118)"><svg viewBox="0 0 60.68765114986699 16.227952941176472" height="16.227952941176472" width="60.68765114986699"><g transform="matrix(1,0,0,1,0,0)"><svg width="60.68765114986699" viewBox="1 -38.900001525878906 186.0399932861328 49.75" height="16.227952941176472" data-palette-color="#4b91f1"><path d="M1 0L1-8.2 3.5-8.2 3.5-30.7 1-30.7 1-38.9 23.95-38.9Q30.2-38.9 33.7-36.35 37.2-33.8 37.2-29.05L37.2-29.05Q37.2-26.1 35.8-24.08 34.4-22.05 32.52-21.03 30.65-20 28.9-19.65L28.9-19.65 28.9-19.15Q32.45-18.8 35.3-16.9 38.15-15 38.15-10.1L38.15-10.1Q38.15-4.85 34.2-2.43 30.25 0 23.95 0L23.95 0 1 0ZM17.5-22.5L20.2-22.5Q21.65-22.5 22.38-23.28 23.1-24.05 23.1-25.7L23.1-25.7 23.1-27.5Q23.1-29.15 22.38-29.93 21.65-30.7 20.2-30.7L20.2-30.7 17.5-30.7 17.5-22.5ZM17.5-8.2L20.55-8.2Q22-8.2 22.73-8.97 23.45-9.75 23.45-11.4L23.45-11.4 23.45-13.6Q23.45-15.25 22.73-16.03 22-16.8 20.55-16.8L20.55-16.8 17.5-16.8 17.5-8.2ZM54.55 0.7Q47.45 0.7 43.45-3.03 39.45-6.75 39.45-13.9L39.45-13.9Q39.45-21.05 43.45-24.78 47.45-28.5 54.55-28.5L54.55-28.5Q61.6-28.5 64.72-24.83 67.85-21.15 67.85-15.7L67.85-15.7 67.85-12.1 51.65-12.1 51.65-11.8Q51.65-9.95 52.75-9.08 53.85-8.2 56.4-8.2L56.4-8.2Q59.45-8.2 62.2-8.65 64.95-9.1 67-9.8L67-9.8 67-1.8Q65.25-0.85 61.87-0.08 58.5 0.7 54.55 0.7L54.55 0.7ZM51.65-17.6L57.45-17.6 57.45-18.2Q57.45-19.9 56.72-20.65 56-21.4 54.55-21.4L54.55-21.4Q53.1-21.4 52.37-20.63 51.65-19.85 51.65-18.2L51.65-18.2 51.65-17.6ZM96.3-8.2L98.5-8.2 98.5 0 85.3 0 85.3-3.4Q84.2-1.8 82.22-0.55 80.25 0.7 77.4 0.7L77.4 0.7Q73.65 0.7 71.5-1.3 69.35-3.3 69.35-6.95L69.35-6.95Q69.35-16.4 85.4-16.65L85.4-16.65Q85.25-18.35 84.1-18.98 82.95-19.6 80.2-19.6L80.2-19.6Q77.95-19.6 75.37-19.13 72.8-18.65 70.65-17.85L70.65-17.85 70.65-27.05Q73.3-27.7 76.4-28.1 79.5-28.5 82.45-28.5L82.45-28.5Q89.9-28.5 93.1-25.8 96.3-23.1 96.3-17.45L96.3-17.45 96.3-8.2ZM85.3-11.4L85.3-11.7Q83.05-11.7 81.82-11.1 80.6-10.5 80.6-9.1L80.6-9.1Q80.6-8.25 81.12-7.73 81.65-7.2 82.6-7.2L82.6-7.2Q83.9-7.2 84.6-8.3 85.3-9.4 85.3-11.4L85.3-11.4ZM130.79-8.2L132.99-8.2 132.99 0 119.29 0 119.29-3.9Q115.69 0.7 110.29 0.7L110.29 0.7Q106.14 0.7 104.07-1.9 101.99-4.5 101.99-9.05L101.99-9.05 101.99-19.6 99.79-19.6 99.79-27.8 113.49-27.8 113.49-11.4Q113.49-9.75 114.22-8.97 114.94-8.2 116.39-8.2L116.39-8.2Q117.84-8.2 118.57-8.97 119.29-9.75 119.29-11.4L119.29-11.4 119.29-19.6 116.59-19.6 116.59-27.8 130.79-27.8 130.79-8.2ZM146.74 0.7Q141.44 0.7 138.77-1.88 136.09-4.45 136.09-10.55L136.09-10.55 136.09-19.6 133.89-19.6 133.89-27.8Q135.79-27.8 136.74-28.78 137.69-29.75 137.69-31.45L137.69-31.45 137.69-33.7 148.29-33.7 148.29-27.8 155.04-27.8 155.04-19.6 148.29-19.6 148.29-11.4Q148.29-9.75 149.02-8.97 149.74-8.2 151.19-8.2L151.19-8.2Q153.09-8.2 155.34-8.65L155.34-8.65 155.34-0.8Q153.94-0.25 151.56 0.23 149.19 0.7 146.74 0.7L146.74 0.7ZM173.14-27.8L187.04-27.8 187.04-19.6 185.14-19.6 178.59-2.25Q176.14 4.3 172.99 7.58 169.84 10.85 164.69 10.85L164.69 10.85Q162.59 10.85 160.44 10.43 158.29 10 156.54 9.25L156.54 9.25 156.54 0.2 163.44 0.2 163.44 0.7Q163.44 1.95 164.74 1.95L164.74 1.95Q165.89 1.95 166.49 0.85L166.49 0.85 158.59-19.6 156.69-19.6 156.69-27.8 171.54-27.8 171.54-19.6 169.84-19.6 172.44-11.8 174.84-19.6 173.14-19.6 173.14-27.8Z" opacity="1" transform="matrix(1,0,0,1,0,0)" fill="#4b91f1" class="slogan-text-1" data-fill-palette-color="secondary" id="text-1"></path></svg></g></svg></g></svg></g></svg></g><g transform="matrix(1,0,0,1,66.258546308934,0)"><svg viewBox="0 0 91.48290738213201 67.28385091087061" height="67.28385091087061" width="91.48290738213201"><g><svg xmlns="http://www.w3.org/2000/svg" xmlns:xlink="http://www.w3.org/1999/xlink" version="1.1" x="0" y="0" viewBox="4.999592304229736 16.90399932861328 89.99836730957031 66.19200134277344" enable-background="new 0 0 100 100" xml:space="preserve" height="67.28385091087061" width="91.48290738213201" class="icon-icon-0" data-fill-palette-color="accent" id="icon-0"><g fill="#4b91f1" data-fill-palette-color="accent"><path d="M50 81.164l-1.511-1.565c-0.136-0.141-3.352-3.494-6.584-8.907-3.006-5.032-6.589-12.875-6.589-21.657s3.583-16.625 6.589-21.657c3.233-5.413 6.449-8.767 6.584-8.907L50 16.904l1.512 1.565c0.135 0.141 3.351 3.494 6.584 8.907 3.006 5.032 6.589 12.875 6.589 21.657s-3.583 16.625-6.589 21.657c-3.233 5.413-6.449 8.767-6.584 8.907L50 81.164zM50.002 23.135c-3.223 3.954-10.485 14.166-10.485 25.899 0 11.765 7.255 21.952 10.48 25.899 3.224-3.955 10.484-14.167 10.484-25.899C60.482 37.27 53.227 27.082 50.002 23.135z" fill="#4b91f1" data-fill-palette-color="accent"></path></g><g fill="#4b91f1" data-fill-palette-color="accent"><path d="M58.28 83.096c-1.002 0-1.89-0.721-2.068-1.742-0.199-1.144 0.567-2.231 1.71-2.43 0.168-0.03 17.139-3.137 25.987-15.256 6.938-9.503 7.084-22.01 6.807-27.099-3.978 1.039-12.473 3.813-19.226 9.805-0.868 0.771-2.196 0.691-2.966-0.177-0.77-0.868-0.691-2.196 0.177-2.967 10.012-8.885 22.995-11.226 23.542-11.32l2.144-0.373 0.298 2.155c0.026 0.193 0.646 4.798 0.066 11.076-0.54 5.837-2.27 14.284-7.448 21.377-5.179 7.094-12.697 11.314-18.092 13.607-5.803 2.465-10.377 3.277-10.569 3.311C58.521 83.085 58.4 83.096 58.28 83.096z" fill="#4b91f1" data-fill-palette-color="accent"></path></g><g fill="#4b91f1" data-fill-palette-color="accent"><path d="M41.719 83.096c-0.12 0-0.241-0.011-0.363-0.032-0.192-0.033-4.767-0.846-10.569-3.311-5.396-2.293-12.914-6.514-18.092-13.607-5.178-7.093-6.908-15.54-7.448-21.377-0.581-6.278 0.04-10.883 0.066-11.076l0.298-2.155 2.144 0.373c0.548 0.095 13.531 2.436 23.542 11.32 0.868 0.771 0.947 2.099 0.177 2.967-0.771 0.868-2.099 0.947-2.967 0.177-6.772-6.01-15.247-8.772-19.221-9.808C9.015 41.66 9.17 54.19 16.089 63.668c8.875 12.156 25.818 15.226 25.988 15.256 1.144 0.198 1.909 1.286 1.71 2.43C43.609 82.375 42.722 83.096 41.719 83.096z" fill="#4b91f1" data-fill-palette-color="accent"></path></g></svg></g></svg></g><g></g></svg></g></svg></g></svg></g></svg></g><defs></defs></svg><rect width="320" height="360" fill="none" stroke="none" visibility="hidden"></rect></g></svg></g></svg>